<svg width="100%" height="100%" viewBox="0 0 28 28" fill="rgba(255,255,255,.9)" xmlns="http://www.w3.org/2000/svg">
<path d="M0 12.4599C0 12.168 0.127563 11.8907 0.349209 11.7007L13.3492 0.557822C13.7237 0.23683 14.2763 0.23683 14.6508 0.557821L27.6508 11.7007C27.8724 11.8907 28 12.168 28 12.4599V27C28 27.5523 27.5523 28 27 28H19C18.4477 28 18 27.5523 18 27V21C18 20.4477 17.5523 20 17 20H11C10.4477 20 10 20.4477 10 21V27C10 27.5523 9.55229 28 9 28H1C0.447715 28 0 27.5523 0 27V12.4599Z" fill="rgba(255,255,255,.9)"></path>
</svg>