<svg width="100%" height="100%" viewBox="0 0 32 36" fill="white" xmlns="http://www.w3.org/2000/svg">
<path fill-rule="evenodd" clip-rule="evenodd" d="M1 0.865601C0.447715 0.865601 0 1.31332 0 1.8656V31.8656C0 32.4179 0.447716 32.8656 1 32.8656H11.1925C11.3477 32.8656 11.5009 32.9017 11.6397 32.9712L15.5528 34.9277C15.8343 35.0685 16.1657 35.0685 16.4472 34.9277L20.3603 32.9712C20.4991 32.9017 20.6523 32.8656 20.8075 32.8656H31C31.5523 32.8656 32 32.4179 32 31.8656V1.8656C32 1.31332 31.5523 0.865601 31 0.865601H20.8075C20.6523 0.865601 20.4991 0.901746 20.3603 0.971173L16.4472 2.92771C16.1657 3.06847 15.8343 3.06847 15.5528 2.92771L11.6397 0.971173C11.5009 0.901746 11.3477 0.865601 11.1925 0.865601H1ZM17.1429 7.72274H14.8571V28.2942H17.1429V7.72274Z" fill="rgba(255,255,255,.9)"></path>
</svg>