<svg xmlns="http://www.w3.org/2000/svg" fill="rgba(255, 255, 255, .8)" viewBox="0 0 32 40" x="0px" y="0px"><g data-name="Layer 23"><path d="M12.67,14.73a4.76466,4.76466,0,0,1-1.44-3.42V9.25a4.77,4.77,0,1,1,9.54,0v2.06a4.76469,4.76469,0,0,1-1.44,3.42,4.9716,4.9716,0,0,1-1.42.97,4.87185,4.87185,0,0,1-3.82,0A4.97063,4.97063,0,0,1,12.67,14.73Zm14.81,8.84a3.7288,3.7288,0,0,0-2.37-3.17l-4.75-1.86a1.272,1.272,0,0,1-.79-1.06l-.08-.95a6.52524,6.52524,0,0,1-.96.54,6.367,6.367,0,0,1-2.53.52,6.2808,6.2808,0,0,1-2.5-.51,6.78666,6.78666,0,0,1-.99-.55l-.08.95a1.27191,1.27191,0,0,1-.79,1.06L6.89,20.4a3.72865,3.72865,0,0,0-2.37,3.17l-.27,3.15a.75359.75359,0,0,0,.75.81H27a.75359.75359,0,0,0,.75-.81Z"/></g></svg>