<svg width="100%" height="100%" viewBox="0 0 36 36" fill="none" xmlns="http://www.w3.org/2000/svg">
<path fill-rule="evenodd" clip-rule="evenodd" d="M1 0C0.447715 0 0 0.447716 0 1V4.14286C0 4.69514 0.447716 5.14286 1 5.14286H35C35.5523 5.14286 36 4.69514 36 4.14286V1C36 0.447715 35.5523 0 35 0H1ZM2.67046 8.80483C2.61722 8.21921 3.07832 7.71429 3.66635 7.71429H32.3334C32.9215 7.71429 33.3826 8.21921 33.3293 8.80483L30.9397 35.0905C30.8929 35.6056 30.461 36 29.9438 36H6.05596C5.53876 36 5.10689 35.6056 5.06007 35.0905L2.67046 8.80483ZM12.857 12.8571H23.1427V15.4286H12.857V12.8571Z" fill="rgba(255,255,255,.9)"></path>
</svg>